inDegrees=yes
name=ik_lifting_orientations
DataType=double
version=3
OpenSimVersion=4.5-2024-01-10-34fd6af
endheader
time	pelvis_tilt	pelvis_list	pelvis_rotation	pelvis_tx	pelvis_ty	pelvis_tz	hip_flexion_r	hip_adduction_r	hip_rotation_r	knee_angle_r	knee_angle_r_beta	ankle_angle_r	subtalar_angle_r	mtp_angle_r	hip_flexion_l	hip_adduction_l	hip_rotation_l	knee_angle_l	knee_angle_l_beta	ankle_angle_l	subtalar_angle_l	mtp_angle_l	lumbar_extension	lumbar_bending	lumbar_rotation	arm_flex_r	arm_add_r	arm_rot_r	elbow_flex_r	pro_sup_r	wrist_flex_r	wrist_dev_r	arm_flex_l	arm_add_l	arm_rot_l	elbow_flex_l	pro_sup_l	wrist_flex_l	wrist_dev_l
0.02	-0.008922953754434863	-0.02153415449763701	-90.00368116456116	0	0.9399999998679526	0	44.99032510476074	-11.65891933573125	0	59.99596541299346	1.047127134369375	-5.804286473819286	0	0	44.99032510476074	-11.65891933573125	0	59.99596541299346	1.047127134369375	-5.804286473819286	0	0	-0.03898173117053266	0.01221672080221529	0.02677330340111684	-0.4653440095768578	-0.1240487427356608	-0.04095811655403597	1.006711236163265	2.549690786370827	0	0	0	-10.294571510695	0	87.50082066016661	2.549690786370827	0	0
0.03	0.004343246424258573	0.01757198260191719	-90.00631905817808	0	0.9399999998679526	0	44.9905536711919	-11.53555059508337	0	59.99604337280851	1.047128495024832	-5.729582870511488	0	0	44.9905536711919	-11.53555059508337	0	59.99604337280851	1.047128495024832	-5.729582870511488	0	0	0.02341056838115313	-0.002882407744118195	0.002051696733964666	-0.2443835531974234	-0.05655115346673753	0.007013430372455155	0.4987149475916122	2.507216223936368	0	0	0	-10.35274167229599	0	87.54244976887601	2.507216223936368	0	0
0.04	0.0008447521498603822	6.052280717640862e-05	-90.00053932822036	0	0.9399999998679526	0	44.99078475994848	-11.42467938779746	0	59.99612301362264	1.047129885019258	-5.665176964337664	0	0	44.99078475994848	-11.42467938779746	0	59.99612301362264	1.047129885019258	-5.665176964337664	0	0	-0.002945600908876553	-0.0005184314948757165	-0.000145361158483069	-0.231145575378909	-0.05706411489085673	-0.004941944299118948	0.4922818394971099	2.463567701569545	0	0	0	-10.41312087202903	0	87.5852296086041	2.463567701569545	0	0
0.05	0.002094870853449385	0.0037864580130835	-89.99327006908011	0	0.9399999998679526	0	44.99078750298681	-11.42319244863547	0	59.99612395055006	1.047129901371726	-5.66427178327332	0	0	44.99078750298681	-11.42319244863547	0	59.99612395055006	1.047129901371726	-5.66427178327332	0	0	0.002808874069033616	-0.0005508915104581148	-0.01271443101143531	-0.2858845649570018	0.06251848634735492	0.5581241753795174	0.4633942235577144	2.463057486483499	0	0	0	-10.41382024519791	0	87.5857296679449	2.463057486483499	0	0
0.06	0.003206835015825339	-0.000355916019286064	-89.99915535077601	0	0.9399999998679526	0	44.9907902915406	-11.42168833438271	0	59.99612490612082	1.047129918049582	-5.663357229526863	0	0	44.9907902915406	-11.42168833438271	0	59.99612490612082	1.047129918049582	-5.663357229526863	0	0	1.468359965780386	-0.249272755689807	-0.2190358283387504	-1.803416225858921	0.8323433071677542	0.6629134656021973	0.6454629206177237	2.462538116486584	0	0	0	-10.41453294460165	0	87.58623870007364	2.462538116486584	0	0
0.07000000000000001	0.004079971918161484	-0.01392588911547881	-90.00045274135334	0	0.9399999998679526	0	44.99084303181827	-11.4022247786006	0	59.99614780492766	1.047130317709156	-5.652503105464167	0	0	44.99084303181827	-11.4022247786006	0	59.99614780492766	1.047130317709156	-5.652503105464167	0	0	1.448052797324378	-0.2463069134528064	-0.2146124780775388	-1.935247001042301	1.87271773310382	1.121507472539554	2.323848304242387	2.45172021371824	0	0	0	-10.43054941689244	0	87.59684142608884	2.45172021371824	0	0
0.08	0.001804933700811576	-0.01085480188192155	-90.0007637407093	0	0.9399999998679526	0	44.99084546997102	-11.40091604661812	0	59.99614863803109	1.047130332249554	-5.651709085904788	0	0	44.99084546997102	-11.40091604661812	0	59.99614863803109	1.047130332249554	-5.651709085904788	0	0	1.459884563261923	-0.245115229313521	-0.2156413687814684	-2.059478438562685	2.392097657933424	1.023634386055663	2.644378144328317	2.451265982916918	0	0	0	-10.43117272112595	0	87.59728661565984	2.451265982916918	0	0
0.09	0.01005657119152116	0.02406158159253462	-89.99562560631269	0	0.9399999998679526	0	44.99084823198351	-11.39943967439924	0	59.99614958435429	1.04713034876601	-5.650814259214984	0	0	44.99084823198351	-11.39943967439924	0	59.99614958435429	1.04713034876601	-5.650814259214984	0	0	2.93380341790876	-0.5048124701312353	-0.427404901081549	-3.66317072801679	3.24222435086415	1.718625546143939	2.884214071860975	2.450750843610392	0	0	0	-10.43188025207135	0	87.59779150146957	2.450750843610392	0	0
0.1	-0.003090731224891263	0.02650209522176115	-89.99425641124502	0	0.9399999998679526	0	44.99087789288809	-11.38835174700943	0	59.99616235719588	1.04713057169415	-5.644608954414261	0	0	44.99087789288809	-11.38835174700943	0	59.99616235719588	1.04713057169415	-5.644608954414261	0	0	2.953704002255454	-0.48304843493893	-0.4248850561247404	-2.801099035589337	3.171423054345794	2.421836215988683	3.105457996859486	2.444682869250602	0	0	0	-10.44084699835306	0	87.60373877679154	2.444682869250602	0	0
0.11	0.001388139859410218	0.03083526383861919	-90.00249625729053	0	0.9399999998679526	0	44.99088040302275	-11.38701706107784	0	59.99616321716137	1.04713058670338	-5.643801531665452	0	0	44.99088040302275	-11.38701706107784	0	59.99616321716137	1.04713058670338	-5.643801531665452	0	0	4.360119906507683	-0.7477532739797107	-0.6231538702984584	-4.273508301714961	3.57723325372853	3.285569205796062	3.313742585233439	2.44421433837462	0	0	0	-10.44149084078824	0	87.60419798196165	2.44421433837462	0	0
0.12	-0.002070086688139394	0.003951001996255391	-89.99962444417125	0	0.9399999998679526	0	44.99088259038166	-11.38585128957084	0	59.99616396491999	1.04713059975423	-5.643096051383738	0	0	44.99088259038166	-11.38585128957084	0	59.99616396491999	1.04713059975423	-5.643096051383738	0	0	4.341285982473901	-0.7289581842263727	-0.6208397002295685	-4.432714467126401	4.064863438778888	3.184089235885456	3.672978063544027	2.443806377648952	0	0	0	-10.44205106850779	0	87.60459782253272	2.443806377648952	0	0
0.13	0.004899655440347733	0.02002598290118134	-89.99876745886081	0	0.9399999998679526	0	44.99088600498877	-11.38403819850493	0	59.9961651347758	1.047130620172065	-5.641999889999653	0	0	44.99088600498877	-11.38403819850493	0	59.9961651347758	1.047130620172065	-5.641999889999653	0	0	6.688402382376851	-1.15868664541739	-0.9295698568346618	-6.789034417555586	4.412204538824742	3.569201432805882	3.665369543199057	2.443168935454866	0	0	0	-10.44292708261178	0	87.60522257700224	2.443168935454866	0	0
0.14	0.0004458805583607585	0.01254661023500561	-89.99670517268736	0	0.9399999998679526	0	44.99088870409722	-11.38260226222652	0	59.9961660576945	1.047130636280035	-5.641131548940428	0	0	44.99088870409722	-11.38260226222652	0	59.9961660576945	1.047130636280035	-5.641131548940428	0	0	5.762360772708578	-0.9742514268141312	-0.8135830184619673	-5.940718545533864	4.359757248271851	3.977998034577068	3.642318690456836	2.442665410863877	0	0	0	-10.44361864483334	0	87.60571607933201	2.442665410863877	0	0
0.15	-0.00393355438859997	1.3918115828877	-89.99743031624182	0	0.9399999998679526	0	44.9908941654119	-11.3797431472967	0	59.99616794146317	1.047130669158001	-5.639410060243123	0	0	44.9908941654119	-11.3797431472967	0	59.99616794146317	1.047130669158001	-5.639410060243123	0	0	7.117463018623636	-0.9730539264006768	-0.8131950955404008	-5.88036344123442	4.370028184472369	3.973129837723676	3.582060757925003	2.441642810602186	0	0	0	-10.44502719265735	0	87.60671832608206	2.441642810602186	0	0
0.16	-0.003090004273755014	1.402155417064092	-89.99756483692541	0	0.9399999998679526	0	44.99089726574143	-11.37809579806514	0	59.99616900091918	1.047130687648997	-5.638414617972985	0	0	44.99089726574143	-11.37809579806514	0	59.99616900091918	1.047130687648997	-5.638414617972985	0	0	7.1478652434957	-0.9749070546941346	-0.8129123316078455	-5.161688430088438	3.509722077904105	5.281395945168484	2.743554371110492	2.441064458111869	0	0	0	-10.44582144983922	0	87.6072851669242	2.441064458111869	0	0
0.17	-0.003288656698001982	1.384059250856811	-90.00239093150495	0	0.9399999998679526	0	44.99089972044847	-11.37680060383079	0	59.99616984378576	1.047130702359794	-5.637633219983972	0	0	44.99089972044847	-11.37680060383079	0	59.99616984378576	1.047130702359794	-5.637633219983972	0	0	6.223614606740808	-0.8113406814335974	-0.6887856276627264	-4.255986301111773	3.365183352656653	5.135839438216864	2.7702361893281	2.440605658782365	0	0	0	-10.44645253139136	0	87.60773483434701	2.440605658782365	0	0
0.18	-0.006516487243342484	1.396894012257744	-89.98577141119213	0	0.9399999998679526	0	44.99090290140609	-11.37511249021515	0	59.99617093068245	1.047130721329719	-5.636613742057	0	0	44.99090290140609	-11.37511249021515	0	59.99617093068245	1.047130721329719	-5.636613742057	0	0	6.232762829030944	-0.8072541395856756	-0.7096348569972936	-4.154103946725413	2.981810143156306	5.794514304429538	2.344792614561767	2.440012209315961	0	0	0	-10.44726755022177	0	87.60831647168453	2.440012209315961	0	0
0.19	0.01578633724284989	2.747054575615347	-90.00307979526841	0	0.9399999998679526	0	44.99090686049824	-11.37303179279632	0	59.99617229016479	1.047130745057162	-5.63536060370178	0	0	44.99090686049824	-11.37303179279632	0	59.99617229016479	1.047130745057162	-5.63536060370178	0	0	6.688347147234677	-0.6882964370235992	-0.5747373870368422	-3.484859691147252	2.822355258084993	6.241450351388182	2.593322188119855	2.439272010768381	0	0	0	-10.44828577013278	0	87.60904193740564	2.439272010768381	0	0
0.2	-0.004441850875812932	2.741591498399018	-89.99815322099151	0	0.9399999998679526	0	44.99091041680462	-11.37115057505432	0	59.99617350668744	1.047130766289488	-5.634225741248339	0	0	44.99091041680462	-11.37115057505432	0	59.99617350668744	1.047130766289488	-5.634225741248339	0	0	6.695304484950793	-0.6621127103406518	-0.5695229772455772	-2.318891931411247	2.521045455008211	6.395180593823546	1.250229324120677	2.438608128017848	0	0	0	-10.44919793854583	0	87.6096926061759	2.438608128017848	0	0
0.21	0.0007961514488125225	4.093746567591303	-89.99995999972163	0	0.9399999998679526	0	44.99091746666311	-11.3674399997122	0	59.99617592190736	1.047130808443028	-5.631991176724303	0	0	44.99091746666311	-11.3674399997122	0	59.99617592190736	1.047130808443028	-5.631991176724303	0	0	8.04293031092139	-0.6657666921694483	-0.5685428216030027	-2.643619084899386	1.887736722988656	7.001473698179955	1.755588082940403	2.437291008022354	0	0	0	-10.45100863756561	0	87.61098351025342	2.437291008022354	0	0
0.22	-0.001443614099990889	4.096236557176469	-89.99950623555684	0	0.9399999998679526	0	44.99110687547424	-11.27813836728916	0	59.99624130906906	1.047131949664288	-5.580510688937579	0	0	44.99110687547424	-11.27813836728916	0	59.99624130906906	1.047131949664288	-5.580510688937579	0	0	8.048578623046314	-0.6641899221925236	-0.5683968567340436	-2.647631393713482	1.889307148061954	6.999684139140337	1.756577130401169	2.401427282416165	0	0	0	-10.50070054377616	0	87.64613349691847	2.401427282416165	0	0
0.23	0.0006589610661352764	4.085871293901474	-90.01624429450099	0	0.9399999998679526	0	44.99110844193128	-11.27735089230189	0	59.99624184815679	1.047131959073144	-5.580044469657191	0	0	44.99110844193128	-11.27735089230189	0	59.99624184815679	1.047131959073144	-5.580044469657191	0	0	8.023634149680388	-0.6681152602675537	-0.5303729961065887	-2.818399506216274	1.878149326753458	7.546157491295949	1.928203766722679	2.401132784612082	0	0	0	-10.50110698856656	0	87.64642213338868	2.401132784612082	0	0
0.24	0.006462503856023861	4.049129491396589	-90.0095028391931	0	0.9399999998679526	0	44.9911111875464	-11.27601328684337	0	59.99624281647479	1.047131975973481	-5.579257384218676	0	0	44.9911111875464	-11.27601328684337	0	59.99624281647479	1.047131975973481	-5.579257384218676	0	0	8.87583142799957	-0.8291735695768746	-0.6697200924473876	-4.783294476624984	1.79520430405371	7.621872587684915	2.991254093370058	2.400611666303038	0	0	0	-10.50183199743478	0	87.6469328806799	2.400611666303038	0	0
0.25	0.001876343500746555	4.069154034259469	-90.00476002510935	0	0.9399999998679526	0	44.99111365093232	-11.27477500719431	0	59.99624366346846	1.047131990756309	-5.578524502359651	0	0	44.99111365093232	-11.27477500719431	0	59.99624366346846	1.047131990756309	-5.578524502359651	0	0	9.788255533256738	-0.9831775291408786	-0.8146707097032178	-5.690621478188993	0.9110570154546657	8.477647948469434	2.92232858761861	2.400148649928888	0	0	0	-10.50247086840155	0	87.64738668171478	2.400148649928888	0	0
